M48
; DRILL file {KiCad 7.0.1} date Tue 25 Apr 2023 12:34:14 AM EDT
; FORMAT={-:-/ absolute / metric / decimal}
; #@! TF.CreationDate,2023-04-25T00:34:14-04:00
; #@! TF.GenerationSoftware,Kicad,Pcbnew,7.0.1
; #@! TF.FileFunction,Plated,1,2,PTH
FMAT,2
METRIC
; #@! TA.AperFunction,Plated,PTH,ViaDrill
T1C0.400
; #@! TA.AperFunction,Plated,PTH,ComponentDrill
T2C1.000
; #@! TA.AperFunction,Plated,PTH,ComponentDrill
T3C1.016
%
G90
G05
T1
X38.234Y-71.789
X120.649Y-77.579
X120.649Y-96.629
X149.316Y-114.172
X150.281Y-93.319
X158.575Y-110.975
X167.1Y-109.425
X202.749Y-59.079
T3
X133.027Y-64.244
X133.027Y-69.324
X133.027Y-74.404
X133.027Y-79.484
X133.027Y-84.564
X133.027Y-89.644
X133.027Y-94.724
X133.027Y-99.804
X133.027Y-104.884
X133.027Y-109.964
X133.281Y-61.704
X133.281Y-66.784
X133.281Y-71.864
X133.281Y-76.944
X133.281Y-82.024
X133.281Y-87.104
X133.281Y-92.184
X133.281Y-97.264
X133.281Y-102.344
X133.281Y-107.424
X148.267Y-61.704
X148.267Y-66.784
X148.267Y-71.864
X148.267Y-76.944
X148.267Y-82.024
X148.267Y-87.104
X148.267Y-92.184
X148.267Y-97.264
X148.267Y-102.344
X148.267Y-107.424
X148.521Y-64.244
X148.521Y-69.324
X148.521Y-74.404
X148.521Y-79.484
X148.521Y-84.564
X148.521Y-89.644
X148.521Y-94.724
X148.521Y-99.804
X148.521Y-104.884
X148.521Y-109.964
X155.227Y-64.244
X155.227Y-69.324
X155.227Y-74.404
X155.227Y-79.484
X155.227Y-84.564
X155.227Y-89.644
X155.227Y-94.724
X155.227Y-99.804
X155.227Y-104.884
X155.227Y-109.964
X155.481Y-61.704
X155.481Y-66.784
X155.481Y-71.864
X155.481Y-76.944
X155.481Y-82.024
X155.481Y-87.104
X155.481Y-92.184
X155.481Y-97.264
X155.481Y-102.344
X155.481Y-107.424
X170.467Y-61.704
X170.467Y-66.784
X170.467Y-71.864
X170.467Y-76.944
X170.467Y-82.024
X170.467Y-87.104
X170.467Y-92.184
X170.467Y-97.264
X170.467Y-102.344
X170.467Y-107.424
X170.721Y-64.244
X170.721Y-69.324
X170.721Y-74.404
X170.721Y-79.484
X170.721Y-84.564
X170.721Y-89.644
X170.721Y-94.724
X170.721Y-99.804
X170.721Y-104.884
X170.721Y-109.964
T2
X139.824Y-114.554G85X139.324Y-114.554
G05
X141.324Y-118.754G85X140.824Y-118.754
G05
X145.324Y-118.754G85X144.824Y-118.754
G05
X148.324Y-118.754G85X147.824Y-118.754
G05
X155.424Y-114.554G85X155.924Y-114.554
G05
X158.424Y-114.554G85X158.924Y-114.554
G05
X162.424Y-114.554G85X162.924Y-114.554
G05
X163.924Y-118.754G85X164.424Y-118.754
G05
T0
M30
