M48
; DRILL file {KiCad 7.0.1} date Tue 25 Apr 2023 12:34:14 AM EDT
; FORMAT={-:-/ absolute / metric / decimal}
; #@! TF.CreationDate,2023-04-25T00:34:14-04:00
; #@! TF.GenerationSoftware,Kicad,Pcbnew,7.0.1
; #@! TF.FileFunction,NonPlated,1,2,NPTH
FMAT,2
METRIC
; #@! TA.AperFunction,NonPlated,NPTH,ComponentDrill
T1C0.300
; #@! TA.AperFunction,NonPlated,NPTH,ComponentDrill
T2C1.200
; #@! TA.AperFunction,NonPlated,NPTH,ComponentDrill
T3C1.900
; #@! TA.AperFunction,NonPlated,NPTH,ComponentDrill
T4C3.000
; #@! TA.AperFunction,NonPlated,NPTH,ComponentDrill
T5C4.100
; #@! TA.AperFunction,NonPlated,NPTH,ComponentDrill
T6C4.300
%
G90
G05
T1
X151.574Y-63.179
X151.574Y-63.773
X151.574Y-64.367
X151.574Y-64.96
X151.574Y-65.554
X151.574Y-66.148
X151.574Y-66.742
X151.574Y-67.335
X151.574Y-67.929
X151.574Y-114.279
X151.574Y-114.873
X151.574Y-115.467
X151.574Y-116.06
X151.574Y-116.654
X151.574Y-117.248
X151.574Y-117.842
X151.574Y-118.435
X151.574Y-119.029
X152.174Y-63.179
X152.174Y-63.773
X152.174Y-64.367
X152.174Y-64.96
X152.174Y-65.554
X152.174Y-66.148
X152.174Y-66.742
X152.174Y-67.335
X152.174Y-67.929
X152.174Y-114.279
X152.174Y-114.873
X152.174Y-115.467
X152.174Y-116.06
X152.174Y-116.654
X152.174Y-117.248
X152.174Y-117.842
X152.174Y-118.435
X152.174Y-119.029
T2
X142.874Y-116.654
X149.874Y-116.654
X153.874Y-116.654
X160.874Y-116.654
T3
X33.231Y-80.672
X36.539Y-99.432
X39.847Y-118.193
X43.237Y-78.907
X46.545Y-97.668
X49.853Y-116.428
X58.419Y-66.579
X58.419Y-104.679
X58.419Y-85.629
X68.579Y-66.579
X68.579Y-104.679
X68.579Y-85.629
X77.469Y-60.579
X77.469Y-79.629
X77.469Y-98.679
X87.629Y-60.579
X87.629Y-79.629
X87.629Y-98.679
X88.58Y-124.033
X96.519Y-86.129
X96.519Y-105.179
X96.519Y-67.079
X98.721Y-124.653
X106.679Y-86.129
X106.679Y-105.179
X106.679Y-67.079
X109.814Y-126.81
X115.569Y-69.579
X115.569Y-88.629
X115.569Y-107.679
X119.448Y-130.033
X125.729Y-69.579
X125.729Y-88.629
X125.729Y-107.679
X129.605Y-134.987
X138.078Y-140.595
X165.67Y-140.595
X174.143Y-134.987
X178.019Y-88.629
X178.019Y-69.579
X178.019Y-107.679
X184.3Y-130.033
X188.179Y-88.629
X188.179Y-69.579
X188.179Y-107.679
X193.935Y-126.81
X197.069Y-67.079
X197.069Y-105.179
X197.069Y-86.129
X205.027Y-124.653
X207.229Y-67.079
X207.229Y-105.179
X207.229Y-86.129
X215.168Y-124.033
X216.119Y-98.679
X216.119Y-60.579
X216.119Y-79.629
X226.279Y-98.679
X226.279Y-60.579
X226.279Y-79.629
X235.169Y-66.579
X235.169Y-85.629
X235.169Y-104.679
X245.329Y-66.579
X245.329Y-85.629
X245.329Y-104.679
X253.895Y-116.428
X257.203Y-97.668
X260.511Y-78.907
X263.901Y-118.193
X267.209Y-99.432
X270.517Y-80.672
T4
X34.041Y-77.95
X37.349Y-96.71
X39.853Y-74.346
X40.657Y-115.471
X43.161Y-93.106
X46.469Y-111.867
X59.689Y-64.039
X59.689Y-102.139
X59.689Y-83.089
X66.039Y-61.499
X66.039Y-99.599
X66.039Y-80.549
X78.739Y-58.039
X78.739Y-77.089
X78.739Y-96.139
X85.089Y-55.499
X85.089Y-74.549
X85.089Y-93.599
X90.002Y-121.575
X96.496Y-119.428
X97.789Y-83.589
X97.789Y-102.639
X97.789Y-64.539
X104.139Y-81.049
X104.139Y-100.099
X104.139Y-61.999
X111.824Y-124.804
X116.839Y-67.039
X116.839Y-86.089
X116.839Y-105.139
X118.652Y-124.41
X123.189Y-64.499
X123.189Y-83.549
X123.189Y-102.599
X132.066Y-133.57
X138.763Y-134.957
X165.328Y-137.776
X169.221Y-132.153
X179.289Y-86.089
X179.289Y-67.039
X179.289Y-105.139
X184.698Y-127.222
X185.639Y-83.549
X185.639Y-64.499
X185.639Y-102.599
X189.914Y-122.798
X198.339Y-64.539
X198.339Y-102.639
X198.339Y-83.589
X204.689Y-61.999
X204.689Y-100.099
X204.689Y-81.049
X206.14Y-122.041
X212.323Y-119.118
X217.389Y-96.139
X217.389Y-58.039
X217.389Y-77.089
X223.739Y-93.599
X223.739Y-55.499
X223.739Y-74.549
X236.439Y-64.039
X236.439Y-83.089
X236.439Y-102.139
X242.789Y-61.499
X242.789Y-80.549
X242.789Y-99.599
X255.587Y-114.148
X258.895Y-95.387
X262.203Y-76.626
X262.282Y-112.749
X265.59Y-93.988
X268.898Y-75.228
T5
X38.234Y-79.789
X41.542Y-98.55
X44.85Y-117.311
X63.499Y-66.579
X63.499Y-104.679
X63.499Y-85.629
X82.549Y-60.579
X82.549Y-79.629
X82.549Y-98.679
X93.65Y-124.343
X101.599Y-86.129
X101.599Y-105.179
X101.599Y-67.079
X114.631Y-128.421
X120.649Y-69.579
X120.649Y-88.629
X120.649Y-107.679
X133.841Y-137.791
X169.907Y-137.791
X183.099Y-88.629
X183.099Y-69.579
X183.099Y-107.679
X189.117Y-128.421
X202.149Y-67.079
X202.149Y-105.179
X202.149Y-86.129
X210.098Y-124.343
X221.199Y-98.679
X221.199Y-60.579
X221.199Y-79.629
X240.249Y-66.579
X240.249Y-85.629
X240.249Y-104.679
X258.898Y-117.311
X262.206Y-98.55
X265.514Y-79.789
T6
X49.268Y-87.516
X52.576Y-106.276
X84.724Y-114.254
X111.124Y-76.604
X126.686Y-122.411
X177.062Y-122.411
X192.624Y-76.604
X219.024Y-114.254
X251.172Y-106.276
X254.48Y-87.516
T0
M30
